<svg xmlns="http://www.w3.org/2000/svg" xmlns:xlink="http://www.w3.org/1999/xlink" width="3240" zoomAndPan="magnify" viewBox="0 0 2430 809.999993" height="1080" preserveAspectRatio="xMidYMid meet" version="1.0"><defs><g/></defs><g fill="#000000" fill-opacity="1"><g transform="translate(13.070054, 495.691238)"><g><path d="M 211.453125 -104.640625 C 211.453125 -86.671875 208.335938 -70.96875 202.109375 -57.53125 C 195.878906 -44.09375 187.351562 -32.914062 176.53125 -24 C 165.71875 -15.082031 153.0625 -8.394531 138.5625 -3.9375 C 124.070312 0.519531 108.503906 2.75 91.859375 2.75 C 85.429688 2.75 78.378906 1.894531 70.703125 0.1875 C 63.035156 -1.507812 55.265625 -3.632812 47.390625 -6.1875 C 39.523438 -8.75 31.953125 -11.503906 24.671875 -14.453125 C 17.398438 -17.398438 10.945312 -20.1875 5.3125 -22.8125 L 13.96875 -103.859375 C 25.113281 -97.171875 37.472656 -92.085938 51.046875 -88.609375 C 64.617188 -85.128906 77.957031 -83.390625 91.0625 -83.390625 C 93.5625 -83.390625 96.578125 -83.488281 100.109375 -83.6875 C 103.648438 -83.882812 107.023438 -84.472656 110.234375 -85.453125 C 113.453125 -86.441406 116.175781 -87.921875 118.40625 -89.890625 C 120.632812 -91.859375 121.75 -94.675781 121.75 -98.34375 C 121.75 -100.832031 120.960938 -102.960938 119.390625 -104.734375 C 117.816406 -106.503906 115.785156 -107.945312 113.296875 -109.0625 C 110.804688 -110.175781 107.984375 -111.03125 104.828125 -111.625 C 101.679688 -112.21875 98.597656 -112.644531 95.578125 -112.90625 C 92.566406 -113.164062 89.75 -113.296875 87.125 -113.296875 C 84.507812 -113.296875 82.414062 -113.296875 80.84375 -113.296875 C 69.5625 -113.296875 59.296875 -115.257812 50.046875 -119.1875 C 40.804688 -123.125 32.875 -128.597656 26.25 -135.609375 C 19.632812 -142.628906 14.488281 -150.957031 10.8125 -160.59375 C 7.144531 -170.238281 5.3125 -180.695312 5.3125 -191.96875 C 5.3125 -207.445312 8.425781 -221.316406 14.65625 -233.578125 C 20.882812 -245.835938 29.207031 -256.257812 39.625 -264.84375 C 50.050781 -273.4375 62.019531 -280.023438 75.53125 -284.609375 C 89.039062 -289.203125 103.003906 -291.5 117.421875 -291.5 C 123.847656 -291.5 130.46875 -291.269531 137.28125 -290.8125 C 144.101562 -290.351562 150.890625 -289.53125 157.640625 -288.34375 C 164.398438 -287.164062 170.992188 -285.660156 177.421875 -283.828125 C 183.847656 -281.992188 189.941406 -279.695312 195.703125 -276.9375 L 188.234375 -197.09375 C 179.316406 -200.101562 169.972656 -202.625 160.203125 -204.65625 C 150.429688 -206.6875 140.894531 -207.703125 131.59375 -207.703125 C 129.882812 -207.703125 127.6875 -207.671875 125 -207.609375 C 122.3125 -207.546875 119.488281 -207.347656 116.53125 -207.015625 C 113.582031 -206.691406 110.597656 -206.203125 107.578125 -205.546875 C 104.566406 -204.890625 101.878906 -204.003906 99.515625 -202.890625 C 97.160156 -201.773438 95.257812 -200.296875 93.8125 -198.453125 C 92.375 -196.617188 91.722656 -194.457031 91.859375 -191.96875 C 91.984375 -189.082031 93.0625 -186.753906 95.09375 -184.984375 C 97.132812 -183.210938 99.757812 -181.835938 102.96875 -180.859375 C 106.175781 -179.878906 109.710938 -179.191406 113.578125 -178.796875 C 117.453125 -178.398438 121.289062 -178.164062 125.09375 -178.09375 C 128.894531 -178.03125 132.4375 -178.03125 135.71875 -178.09375 C 139 -178.164062 141.6875 -178.070312 143.78125 -177.8125 C 154.269531 -177.15625 163.707031 -174.925781 172.09375 -171.125 C 180.488281 -167.320312 187.601562 -162.269531 193.4375 -155.96875 C 199.28125 -149.675781 203.742188 -142.171875 206.828125 -133.453125 C 209.910156 -124.734375 211.453125 -115.128906 211.453125 -104.640625 Z M 211.453125 -104.640625 "/></g></g></g><g fill="#000000" fill-opacity="1"><g transform="translate(226.868377, 495.691238)"><g><path d="M 204.953125 -276.546875 L 193.9375 -193.546875 C 190.132812 -194.597656 186.332031 -195.316406 182.53125 -195.703125 C 178.726562 -196.097656 174.925781 -196.296875 171.125 -196.296875 C 161.414062 -196.296875 152.171875 -195.015625 143.390625 -192.453125 C 134.609375 -189.898438 126.835938 -186 120.078125 -180.75 C 113.328125 -175.507812 107.953125 -168.957031 103.953125 -161.09375 C 99.953125 -153.226562 97.953125 -143.984375 97.953125 -133.359375 C 97.953125 -126.535156 99.03125 -120.632812 101.1875 -115.65625 C 103.351562 -110.675781 106.40625 -106.546875 110.34375 -103.265625 C 114.28125 -99.984375 118.9375 -97.554688 124.3125 -95.984375 C 129.6875 -94.410156 135.585938 -93.625 142.015625 -93.625 C 146.867188 -93.625 151.914062 -94.144531 157.15625 -95.1875 C 162.40625 -96.238281 167.585938 -97.617188 172.703125 -99.328125 C 177.816406 -101.035156 182.796875 -103.003906 187.640625 -105.234375 C 192.492188 -107.460938 196.953125 -109.753906 201.015625 -112.109375 L 193.15625 -19.671875 C 188.039062 -17.046875 182.5 -14.71875 176.53125 -12.6875 C 170.5625 -10.65625 164.429688 -8.882812 158.140625 -7.375 C 151.847656 -5.863281 145.550781 -4.710938 139.25 -3.921875 C 132.957031 -3.140625 126.925781 -2.75 121.15625 -2.75 C 104.507812 -2.75 88.972656 -5.832031 74.546875 -12 C 60.117188 -18.164062 47.59375 -26.625 36.96875 -37.375 C 26.351562 -48.125 17.992188 -60.804688 11.890625 -75.421875 C 5.796875 -90.046875 2.75 -105.816406 2.75 -122.734375 C 2.75 -145.160156 5.960938 -166.304688 12.390625 -186.171875 C 18.816406 -206.035156 28.257812 -223.441406 40.71875 -238.390625 C 53.175781 -253.335938 68.613281 -265.140625 87.03125 -273.796875 C 105.457031 -282.453125 126.671875 -286.78125 150.671875 -286.78125 C 159.710938 -286.78125 168.988281 -286.054688 178.5 -284.609375 C 188.007812 -283.171875 196.828125 -280.484375 204.953125 -276.546875 Z M 204.953125 -276.546875 "/></g></g></g><g fill="#000000" fill-opacity="1"><g transform="translate(434.175986, 495.691238)"><g><path d="M 258.0625 -16.921875 L 160.5 -4.328125 L 148.703125 -48.78125 L 103.859375 -48.78125 L 94.015625 -4.328125 L -6.296875 -14.15625 L 71.984375 -276.15625 L 181.34375 -281.671875 Z M 141.625 -108.96875 L 126.671875 -177.421875 L 112.109375 -108.96875 Z M 141.625 -108.96875 "/></g></g></g><g fill="#000000" fill-opacity="1"><g transform="translate(686.328123, 495.691238)"><g><path d="M 277.53125 -282.0625 L 263.375 -15.34375 L 160.3125 -5.90625 L 105.234375 -148.703125 L 96.578125 -3.140625 L 8.0625 -3.140625 L 15.140625 -282.0625 L 113.484375 -286.78125 L 181.546875 -145.15625 L 184.6875 -278.90625 Z M 277.53125 -282.0625 "/></g></g></g><g fill="#000000" fill-opacity="1"><g transform="translate(969.753483, 495.691238)"><g><path d="M 277.53125 -282.0625 L 263.375 -15.34375 L 160.3125 -5.90625 L 105.234375 -148.703125 L 96.578125 -3.140625 L 8.0625 -3.140625 L 15.140625 -282.0625 L 113.484375 -286.78125 L 181.546875 -145.15625 L 184.6875 -278.90625 Z M 277.53125 -282.0625 "/></g></g></g><g fill="#000000" fill-opacity="1"><g transform="translate(1253.178843, 495.691238)"><g><path d="M 258.0625 -16.921875 L 160.5 -4.328125 L 148.703125 -48.78125 L 103.859375 -48.78125 L 94.015625 -4.328125 L -6.296875 -14.15625 L 71.984375 -276.15625 L 181.34375 -281.671875 Z M 141.625 -108.96875 L 126.671875 -177.421875 L 112.109375 -108.96875 Z M 141.625 -108.96875 "/></g></g></g><g fill="#000000" fill-opacity="1"><g transform="translate(1505.33098, 495.691238)"><g><path d="M 238.984375 -70.015625 C 238.984375 -59.140625 236.984375 -49.765625 232.984375 -41.890625 C 228.984375 -34.023438 223.640625 -27.335938 216.953125 -21.828125 C 210.265625 -16.328125 202.5625 -11.835938 193.84375 -8.359375 C 185.125 -4.878906 176.039062 -2.15625 166.59375 -0.1875 C 157.15625 1.769531 147.679688 3.078125 138.171875 3.734375 C 128.671875 4.390625 119.789062 4.71875 111.53125 4.71875 C 103.394531 4.71875 94.96875 4.421875 86.25 3.828125 C 77.53125 3.242188 68.84375 2.226562 60.1875 0.78125 C 51.53125 -0.65625 43.003906 -2.585938 34.609375 -5.015625 C 26.222656 -7.441406 18.289062 -10.488281 10.8125 -14.15625 L 10.421875 -267.5 C 17.765625 -270.519531 25.566406 -273.238281 33.828125 -275.65625 C 42.085938 -278.082031 50.507812 -280.113281 59.09375 -281.75 C 67.6875 -283.394531 76.242188 -284.644531 84.765625 -285.5 C 93.296875 -286.351562 101.5625 -286.78125 109.5625 -286.78125 C 118.875 -286.78125 128.28125 -286.1875 137.78125 -285 C 147.289062 -283.820312 156.4375 -281.859375 165.21875 -279.109375 C 174.007812 -276.359375 182.207031 -272.785156 189.8125 -268.390625 C 197.414062 -263.992188 204.066406 -258.582031 209.765625 -252.15625 C 215.472656 -245.726562 219.929688 -238.253906 223.140625 -229.734375 C 226.359375 -221.210938 227.96875 -211.378906 227.96875 -200.234375 C 227.96875 -192.890625 226.914062 -186.003906 224.8125 -179.578125 C 222.71875 -173.148438 219.703125 -167.378906 215.765625 -162.265625 C 211.835938 -157.148438 207.050781 -152.789062 201.40625 -149.1875 C 195.769531 -145.582031 189.410156 -142.925781 182.328125 -141.21875 C 190.859375 -138.988281 198.628906 -135.710938 205.640625 -131.390625 C 212.660156 -127.066406 218.628906 -121.820312 223.546875 -115.65625 C 228.460938 -109.488281 232.265625 -102.535156 234.953125 -94.796875 C 237.640625 -87.066406 238.984375 -78.804688 238.984375 -70.015625 Z M 139.0625 -182.140625 C 139.0625 -185.941406 138.273438 -189.1875 136.703125 -191.875 C 135.128906 -194.5625 133.191406 -196.753906 130.890625 -198.453125 C 128.597656 -200.160156 126.109375 -201.40625 123.421875 -202.1875 C 120.734375 -202.976562 118.34375 -203.375 116.25 -203.375 C 113.625 -203.375 111.066406 -202.976562 108.578125 -202.1875 C 106.085938 -201.40625 103.660156 -200.492188 101.296875 -199.453125 L 100.109375 -155.78125 C 103.128906 -155.78125 106.867188 -156.039062 111.328125 -156.5625 C 115.785156 -157.09375 120.078125 -158.242188 124.203125 -160.015625 C 128.335938 -161.785156 131.847656 -164.40625 134.734375 -167.875 C 137.617188 -171.351562 139.0625 -176.109375 139.0625 -182.140625 Z M 111.125 -118.015625 C 107.320312 -118.015625 103.648438 -117.617188 100.109375 -116.828125 L 99.328125 -71.984375 C 101.296875 -71.597656 103.226562 -71.238281 105.125 -70.90625 C 107.03125 -70.582031 108.898438 -70.421875 110.734375 -70.421875 C 113.492188 -70.421875 116.507812 -70.710938 119.78125 -71.296875 C 123.0625 -71.890625 126.144531 -73.070312 129.03125 -74.84375 C 131.914062 -76.613281 134.304688 -79.003906 136.203125 -82.015625 C 138.109375 -85.035156 139.0625 -89.035156 139.0625 -94.015625 C 139.0625 -99.003906 138.109375 -103.070312 136.203125 -106.21875 C 134.304688 -109.363281 131.976562 -111.820312 129.21875 -113.59375 C 126.46875 -115.363281 123.453125 -116.539062 120.171875 -117.125 C 116.898438 -117.71875 113.882812 -118.015625 111.125 -118.015625 Z M 111.125 -118.015625 "/></g></g></g><g fill="#000000" fill-opacity="1"><g transform="translate(1744.698553, 495.691238)"><g><path d="M 182.921875 -112.109375 L 174.65625 -24.78125 L 9.046875 -11.796875 C 9.835938 -57.566406 10.722656 -103.070312 11.703125 -148.3125 C 12.679688 -193.550781 13.894531 -239.050781 15.34375 -284.8125 L 117.625 -284.8125 C 114.601562 -256.09375 111.71875 -227.40625 108.96875 -198.75 C 106.21875 -170.101562 104.25 -141.222656 103.0625 -112.109375 C 109.226562 -111.847656 115.328125 -111.71875 121.359375 -111.71875 C 127.390625 -111.71875 133.488281 -111.71875 139.65625 -111.71875 C 147 -111.71875 154.207031 -111.78125 161.28125 -111.90625 C 168.363281 -112.039062 175.578125 -112.109375 182.921875 -112.109375 Z M 182.921875 -112.109375 "/></g></g></g><g fill="#000000" fill-opacity="1"><g transform="translate(1926.830283, 495.691238)"><g><path d="M 196.296875 -283.625 C 195.515625 -271.300781 194.796875 -259.109375 194.140625 -247.046875 C 193.484375 -234.984375 192.628906 -222.789062 191.578125 -210.46875 L 108.1875 -206.140625 L 106.21875 -181.34375 L 164.828125 -181.34375 L 160.5 -120.375 L 101.5 -118.40625 L 99.53125 -89.6875 L 182.921875 -89.6875 C 182.140625 -75.269531 181.320312 -60.945312 180.46875 -46.71875 C 179.613281 -32.488281 178.859375 -18.226562 178.203125 -3.9375 L 8.65625 0 L 14.953125 -283.625 Z M 196.296875 -283.625 "/></g></g></g><g fill="#000000" fill-opacity="1"><g transform="translate(2119.779835, 495.691238)"><g><path d="M 211.453125 -104.640625 C 211.453125 -86.671875 208.335938 -70.96875 202.109375 -57.53125 C 195.878906 -44.09375 187.351562 -32.914062 176.53125 -24 C 165.71875 -15.082031 153.0625 -8.394531 138.5625 -3.9375 C 124.070312 0.519531 108.503906 2.75 91.859375 2.75 C 85.429688 2.75 78.378906 1.894531 70.703125 0.1875 C 63.035156 -1.507812 55.265625 -3.632812 47.390625 -6.1875 C 39.523438 -8.75 31.953125 -11.503906 24.671875 -14.453125 C 17.398438 -17.398438 10.945312 -20.1875 5.3125 -22.8125 L 13.96875 -103.859375 C 25.113281 -97.171875 37.472656 -92.085938 51.046875 -88.609375 C 64.617188 -85.128906 77.957031 -83.390625 91.0625 -83.390625 C 93.5625 -83.390625 96.578125 -83.488281 100.109375 -83.6875 C 103.648438 -83.882812 107.023438 -84.472656 110.234375 -85.453125 C 113.453125 -86.441406 116.175781 -87.921875 118.40625 -89.890625 C 120.632812 -91.859375 121.75 -94.675781 121.75 -98.34375 C 121.75 -100.832031 120.960938 -102.960938 119.390625 -104.734375 C 117.816406 -106.503906 115.785156 -107.945312 113.296875 -109.0625 C 110.804688 -110.175781 107.984375 -111.03125 104.828125 -111.625 C 101.679688 -112.21875 98.597656 -112.644531 95.578125 -112.90625 C 92.566406 -113.164062 89.75 -113.296875 87.125 -113.296875 C 84.507812 -113.296875 82.414062 -113.296875 80.84375 -113.296875 C 69.5625 -113.296875 59.296875 -115.257812 50.046875 -119.1875 C 40.804688 -123.125 32.875 -128.597656 26.25 -135.609375 C 19.632812 -142.628906 14.488281 -150.957031 10.8125 -160.59375 C 7.144531 -170.238281 5.3125 -180.695312 5.3125 -191.96875 C 5.3125 -207.445312 8.425781 -221.316406 14.65625 -233.578125 C 20.882812 -245.835938 29.207031 -256.257812 39.625 -264.84375 C 50.050781 -273.4375 62.019531 -280.023438 75.53125 -284.609375 C 89.039062 -289.203125 103.003906 -291.5 117.421875 -291.5 C 123.847656 -291.5 130.46875 -291.269531 137.28125 -290.8125 C 144.101562 -290.351562 150.890625 -289.53125 157.640625 -288.34375 C 164.398438 -287.164062 170.992188 -285.660156 177.421875 -283.828125 C 183.847656 -281.992188 189.941406 -279.695312 195.703125 -276.9375 L 188.234375 -197.09375 C 179.316406 -200.101562 169.972656 -202.625 160.203125 -204.65625 C 150.429688 -206.6875 140.894531 -207.703125 131.59375 -207.703125 C 129.882812 -207.703125 127.6875 -207.671875 125 -207.609375 C 122.3125 -207.546875 119.488281 -207.347656 116.53125 -207.015625 C 113.582031 -206.691406 110.597656 -206.203125 107.578125 -205.546875 C 104.566406 -204.890625 101.878906 -204.003906 99.515625 -202.890625 C 97.160156 -201.773438 95.257812 -200.296875 93.8125 -198.453125 C 92.375 -196.617188 91.722656 -194.457031 91.859375 -191.96875 C 91.984375 -189.082031 93.0625 -186.753906 95.09375 -184.984375 C 97.132812 -183.210938 99.757812 -181.835938 102.96875 -180.859375 C 106.175781 -179.878906 109.710938 -179.191406 113.578125 -178.796875 C 117.453125 -178.398438 121.289062 -178.164062 125.09375 -178.09375 C 128.894531 -178.03125 132.4375 -178.03125 135.71875 -178.09375 C 139 -178.164062 141.6875 -178.070312 143.78125 -177.8125 C 154.269531 -177.15625 163.707031 -174.925781 172.09375 -171.125 C 180.488281 -167.320312 187.601562 -162.269531 193.4375 -155.96875 C 199.28125 -149.675781 203.742188 -142.171875 206.828125 -133.453125 C 209.910156 -124.734375 211.453125 -115.128906 211.453125 -104.640625 Z M 211.453125 -104.640625 "/></g></g></g><path stroke-linecap="butt" transform="matrix(7.553501, 0, 0, 7.553501, 54.59342, 125.520482)" fill="none" stroke-linejoin="miter" d="M 28.00858 33.146757 C 28.00858 35.525104 27.596416 37.604024 26.771571 39.383517 C 25.947243 41.162494 24.818834 42.642561 23.386344 43.823201 C 21.954372 45.003842 20.279341 45.889193 18.360736 46.479255 C 16.442648 47.069316 14.380793 47.364606 12.176207 47.364606 C 11.325504 47.364606 10.392576 47.251868 9.376905 47.025876 C 8.361233 46.800401 7.332633 46.51804 6.291104 46.179828 C 5.249576 45.841099 4.24735 45.476512 3.283393 45.086068 C 2.319953 44.695624 1.465114 44.326383 0.718874 43.979379 L 1.864349 33.250703 C 3.340279 34.136054 4.976006 34.808859 6.773083 35.269117 C 8.569642 35.728858 10.336207 35.958988 12.072261 35.958988 C 12.402199 35.958988 12.801434 35.946059 13.269967 35.920202 C 13.7385 35.893827 14.18583 35.815739 14.610922 35.685418 C 15.036532 35.555615 15.396465 35.360135 15.691754 35.099494 C 15.987043 34.83937 16.13443 34.465992 16.13443 33.979876 C 16.13443 33.649938 16.030484 33.368095 15.822074 33.133828 C 15.613665 32.899562 15.34475 32.708218 15.014812 32.560832 C 14.684874 32.413446 14.311496 32.300192 13.895195 32.222103 C 13.478376 32.144014 13.070349 32.087645 12.671114 32.052997 C 12.271879 32.018348 11.8985 32.000765 11.551497 32.000765 C 11.203976 32.000765 10.926269 32.000765 10.71786 32.000765 C 9.224864 32.000765 7.866843 31.740641 6.642763 31.219877 C 5.418682 30.699113 4.368879 29.974076 3.491802 29.045285 C 2.615243 28.116494 1.934163 27.014459 1.448048 25.738147 C 0.961932 24.462352 0.718874 23.077957 0.718874 21.584961 C 0.718874 19.536552 1.131038 17.70069 1.955366 16.077374 C 2.780212 14.454058 3.882763 13.074317 5.262504 11.937117 C 6.642763 10.799916 8.226776 9.927494 10.015061 9.319849 C 11.802829 8.712205 13.652137 8.408641 15.561434 8.408641 C 16.412136 8.408641 17.288696 8.439152 18.19163 8.499658 C 19.094046 8.560681 19.992843 8.669282 20.886469 8.825459 C 21.780611 8.981637 22.653034 9.181255 23.503736 9.424312 C 24.354439 9.66737 25.161701 9.970934 25.925523 10.335521 L 24.935709 20.908019 C 23.755585 20.508784 22.518576 20.174191 21.225198 19.905276 C 19.93182 19.636361 18.668954 19.501904 17.436599 19.501904 C 17.210607 19.501904 16.919972 19.506041 16.564176 19.514832 C 16.208381 19.523624 15.835003 19.549481 15.444559 19.592921 C 15.053598 19.636361 14.659017 19.701522 14.259781 19.788402 C 13.860029 19.874765 13.504233 19.992157 13.191878 20.139543 C 12.879523 20.287446 12.627674 20.482409 12.436848 20.725467 C 12.246021 20.968525 12.159141 21.255023 12.176207 21.584961 C 12.19379 21.966614 12.337039 22.274832 12.605954 22.509098 C 12.874869 22.743882 13.22239 22.925916 13.647482 23.056237 C 14.073092 23.186557 14.541625 23.277575 15.053598 23.329806 C 15.566088 23.381521 16.073406 23.412032 16.577105 23.420824 C 17.080286 23.429615 17.549336 23.429615 17.98322 23.420824 C 18.417105 23.412032 18.7729 23.424961 19.051124 23.459609 C 20.439656 23.54649 21.689594 23.841779 22.80042 24.34496 C 23.911763 24.848659 24.853483 25.516809 25.626096 26.350446 C 26.39871 27.183566 26.988772 28.177517 27.396799 29.331783 C 27.804825 30.486049 28.00858 31.757707 28.00858 33.146757 Z M 55.453947 10.387752 L 53.9956 21.376552 C 53.492418 21.237957 52.98872 21.142286 52.485538 21.090054 C 51.98184 21.037822 51.478658 21.011965 50.97496 21.011965 C 49.690373 21.011965 48.466293 21.181071 47.303235 21.519801 C 46.140178 21.858531 45.111577 22.374641 44.217435 23.069165 C 43.32381 23.76369 42.611702 24.631458 42.082146 25.672987 C 41.55259 26.715033 41.288329 27.938596 41.288329 29.344712 C 41.288329 30.247646 41.431578 31.028534 41.717559 31.68841 C 42.004057 32.348286 42.407947 32.894908 42.928711 33.328792 C 43.449476 33.763193 44.065912 34.084339 44.777502 34.292232 C 45.489093 34.500641 46.270498 34.605104 47.1212 34.605104 C 47.763494 34.605104 48.431644 34.535289 49.126169 34.396695 C 49.820694 34.257583 50.506427 34.075548 51.183369 33.849556 C 51.860311 33.624081 52.520187 33.363957 53.16248 33.068668 C 53.804774 32.773379 54.394835 32.469815 54.933182 32.156943 L 53.891654 44.396197 C 53.214195 44.743201 52.480884 45.051419 51.691205 45.320334 C 50.901008 45.589249 50.089609 45.824033 49.256489 46.023651 C 48.422853 46.223268 47.589733 46.374792 46.756614 46.479255 C 45.922977 46.583201 45.124506 46.635432 44.360684 46.635432 C 42.156098 46.635432 40.098898 46.227405 38.189084 45.411352 C 36.279787 44.595815 34.621822 43.47568 33.215707 42.052499 C 31.809591 40.628801 30.702902 38.949116 29.89564 37.013445 C 29.088378 35.077774 28.684488 32.990579 28.684488 30.750827 C 28.684488 27.782419 29.110098 24.983117 29.9608 22.35292 C 30.811503 19.723242 32.06144 17.418329 33.710614 15.439218 C 35.359787 13.460624 37.403541 11.897814 39.842911 10.752339 C 42.281764 9.606347 45.089857 9.033868 48.266675 9.033868 C 49.464898 9.033868 50.693116 9.129023 51.951328 9.319849 C 53.210058 9.511193 54.377769 9.866988 55.453947 10.387752 Z M 89.92989 44.760784 L 77.014211 46.427023 L 75.451918 40.541921 L 69.514584 40.541921 L 68.212414 46.427023 L 54.932148 45.125371 L 65.296238 10.439984 L 79.77421 9.71081 Z M 74.514335 32.573761 L 72.535224 23.511841 L 70.608344 32.573761 Z M 125.890038 9.658579 L 124.01539 44.968676 L 110.37002 46.218614 L 103.078802 27.313886 L 101.933327 46.583201 L 90.215354 46.583201 L 91.15242 9.658579 L 104.172562 9.033868 L 113.182768 27.782419 L 113.599069 10.075397 Z M 163.412479 9.658579 L 161.537314 44.968676 L 147.892461 46.218614 L 140.601243 27.313886 L 139.455768 46.583201 L 127.737795 46.583201 L 128.67486 9.658579 L 141.695003 9.033868 L 150.704691 27.782419 L 151.12151 10.075397 Z M 198.356955 44.760784 L 185.440759 46.427023 L 183.878466 40.541921 L 177.941649 40.541921 L 176.639479 46.427023 L 163.359213 45.125371 L 173.722785 10.439984 L 188.201275 9.71081 Z M 182.9414 32.573761 L 180.962289 23.511841 L 179.034892 32.573761 Z M 229.212889 37.72969 C 229.212889 39.170454 228.948628 40.412117 228.419072 41.453646 C 227.889516 42.495175 227.182063 43.380526 226.296712 44.109699 C 225.411361 44.838873 224.391552 45.433072 223.236769 45.89333 C 222.082503 46.353589 220.880142 46.713521 219.630204 46.974162 C 218.380266 47.234285 217.126191 47.408046 215.867462 47.494926 C 214.60925 47.581806 213.432747 47.624729 212.338986 47.624729 C 211.262809 47.624729 210.147329 47.585944 208.993063 47.507855 C 207.838796 47.429766 206.688668 47.295308 205.542676 47.103965 C 204.397201 46.913139 203.268792 46.657152 202.157449 46.336006 C 201.046623 46.014859 199.996303 45.610969 199.006489 45.125371 L 198.954774 11.585458 C 199.927005 11.186223 200.959743 10.826291 202.053503 10.504627 C 203.147263 10.18348 204.262226 9.914565 205.399427 9.697882 C 206.536627 9.480681 207.669173 9.315712 208.797582 9.202975 C 209.925991 9.090237 211.019751 9.033868 212.078863 9.033868 C 213.311218 9.033868 214.557018 9.111957 215.815748 9.268135 C 217.07396 9.424312 218.285112 9.684436 219.448169 10.049023 C 220.611227 10.413609 221.696196 10.886797 222.703076 11.468584 C 223.709956 12.049854 224.59117 12.766099 225.3462 13.616801 C 226.101231 14.467504 226.69181 15.456801 227.116903 16.58521 C 227.541995 17.713619 227.755059 19.015788 227.755059 20.491201 C 227.755059 21.463432 227.615947 22.374641 227.33824 23.225343 C 227.060534 24.076045 226.661298 24.839868 226.140534 25.516809 C 225.61977 26.193751 224.985751 26.771402 224.239512 27.248726 C 223.492755 27.72605 222.650844 28.077708 221.713779 28.303183 C 222.842188 28.598472 223.870788 29.032357 224.799579 29.605352 C 225.727853 30.178348 226.51805 30.872356 227.169134 31.68841 C 227.820219 32.504464 228.3234 33.424463 228.679196 34.448926 C 229.034991 35.472872 229.212889 36.566632 229.212889 37.72969 Z M 215.984854 22.887131 C 215.984854 22.383432 215.880391 21.953685 215.672499 21.59789 C 215.46409 21.242094 215.208103 20.951459 214.904022 20.725467 C 214.600459 20.499992 214.27052 20.335023 213.914725 20.231077 C 213.55893 20.126614 213.24192 20.074383 212.964214 20.074383 C 212.616693 20.074383 212.278481 20.126614 211.948542 20.231077 C 211.618604 20.335023 211.297458 20.456552 210.985103 20.595147 L 210.828925 26.376303 C 211.22816 26.376303 211.723068 26.341655 212.313129 26.272357 C 212.903191 26.202543 213.47205 26.05102 214.018671 25.816236 C 214.56581 25.58197 215.030205 25.234966 215.411858 24.774707 C 215.794028 24.314966 215.984854 23.685601 215.984854 22.887131 Z M 212.287272 31.376055 C 211.783573 31.376055 211.297458 31.428286 210.828925 31.532232 L 210.724462 37.469566 C 210.985103 37.521281 211.241089 37.569375 211.492938 37.612815 C 211.744788 37.655738 211.991983 37.677458 212.23504 37.677458 C 212.599627 37.677458 212.998863 37.638672 213.432747 37.560584 C 213.866631 37.482495 214.274658 37.326317 214.656827 37.091534 C 215.03848 36.857267 215.355489 36.540775 215.607339 36.14154 C 215.859188 35.741787 215.984854 35.212748 215.984854 34.552872 C 215.984854 33.892996 215.859188 33.355166 215.607339 32.938348 C 215.355489 32.521529 215.047271 32.196246 214.682684 31.961979 C 214.318098 31.727713 213.918862 31.571018 213.484978 31.492929 C 213.051094 31.41484 212.651859 31.376055 212.287272 31.376055 Z M 253.481437 32.156943 L 252.387677 43.718738 L 230.461792 45.437726 C 230.566255 39.378863 230.68313 33.355166 230.81345 27.3656 C 230.943771 21.376552 231.104085 15.352855 231.295429 9.293992 L 244.835819 9.293992 C 244.436583 13.096037 244.054931 16.893428 243.690344 20.686681 C 243.325757 24.479935 243.065116 28.303183 242.908939 32.156943 C 243.724993 32.192108 244.532255 32.209174 245.330726 32.209174 C 246.129197 32.209174 246.936459 32.209174 247.752513 32.209174 C 248.724744 32.209174 249.679392 32.200383 250.616975 32.183317 C 251.554558 32.165734 252.509206 32.156943 253.481437 32.156943 Z M 279.364511 9.45017 C 279.260048 11.082277 279.164893 12.696802 279.078013 14.293743 C 278.991133 15.890685 278.878395 17.50521 278.739283 19.137317 L 267.698252 19.709796 L 267.438129 22.991077 L 275.197879 22.991077 L 274.624883 31.063699 L 266.812901 31.323823 L 266.552777 35.125868 L 277.593809 35.125868 C 277.489346 37.035165 277.380745 38.93205 277.268008 40.81549 C 277.15527 42.69893 277.055462 44.587024 276.968581 46.479255 L 254.521932 47.000019 L 255.355569 9.45017 Z M 306.913823 33.146757 C 306.913823 35.525104 306.501659 37.604024 305.676814 39.383517 C 304.852486 41.162494 303.724077 42.642561 302.291587 43.823201 C 300.859615 45.003842 299.184067 45.889193 297.265979 46.479255 C 295.347373 47.069316 293.286036 47.364606 291.08145 47.364606 C 290.230747 47.364606 289.297819 47.251868 288.282148 47.025876 C 287.266476 46.800401 286.237876 46.51804 285.196347 46.179828 C 284.154819 45.841099 283.152076 45.476512 282.188636 45.086068 C 281.225196 44.695624 280.370357 44.326383 279.6236 43.979379 L 280.769592 33.250703 C 282.245005 34.136054 283.881249 34.808859 285.678326 35.269117 C 287.474885 35.728858 289.24145 35.958988 290.977504 35.958988 C 291.306925 35.958988 291.70616 35.946059 292.17521 35.920202 C 292.643743 35.893827 293.091073 35.815739 293.516165 35.685418 C 293.941258 35.555615 294.301708 35.360135 294.596997 35.099494 C 294.891769 34.83937 295.039673 34.465992 295.039673 33.979876 C 295.039673 33.649938 294.935209 33.368095 294.7268 33.133828 C 294.518908 32.899562 294.249476 32.708218 293.919538 32.560832 C 293.590117 32.413446 293.216739 32.300192 292.799921 32.222103 C 292.383619 32.144014 291.975592 32.087645 291.576357 32.052997 C 291.177122 32.018348 290.803743 32.000765 290.456222 32.000765 C 290.109219 32.000765 289.831512 32.000765 289.623103 32.000765 C 288.130107 32.000765 286.771569 31.740641 285.548006 31.219877 C 284.323925 30.699113 283.273605 29.974076 282.397045 29.045285 C 281.520486 28.116494 280.838889 27.014459 280.352774 25.738147 C 279.866658 24.462352 279.6236 23.077957 279.6236 21.584961 C 279.6236 19.536552 280.036281 17.70069 280.860609 16.077374 C 281.685455 14.454058 282.787489 13.074317 284.167747 11.937117 C 285.548006 10.799916 287.132019 9.927494 288.920304 9.319849 C 290.708072 8.712205 292.556863 8.408641 294.466677 8.408641 C 295.317379 8.408641 296.193939 8.439152 297.096873 8.499658 C 297.99929 8.560681 298.897569 8.669282 299.791712 8.825459 C 300.685854 8.981637 301.558277 9.181255 302.408979 9.424312 C 303.259682 9.66737 304.066944 9.970934 304.830766 10.335521 L 303.840952 20.908019 C 302.660311 20.508784 301.423819 20.174191 300.130441 19.905276 C 298.837063 19.636361 297.574197 19.501904 296.341325 19.501904 C 296.11585 19.501904 295.825215 19.506041 295.468902 19.514832 C 295.113107 19.523624 294.740246 19.549481 294.349285 19.592921 C 293.958841 19.636361 293.563743 19.701522 293.164507 19.788402 C 292.765272 19.874765 292.409477 19.992157 292.097121 20.139543 C 291.784766 20.287446 291.532917 20.482409 291.341574 20.725467 C 291.150747 20.968525 291.063867 21.255023 291.08145 21.584961 C 291.099033 21.966614 291.241765 22.274832 291.511197 22.509098 C 291.780112 22.743882 292.127116 22.925916 292.552726 23.056237 C 292.977818 23.186557 293.446868 23.277575 293.958841 23.329806 C 294.470814 23.381521 294.97865 23.412032 295.482348 23.420824 C 295.98553 23.429615 296.454579 23.429615 296.888464 23.420824 C 297.322348 23.412032 297.678143 23.424961 297.955849 23.459609 C 299.344899 23.54649 300.594837 23.841779 301.705663 24.34496 C 302.817006 24.848659 303.758726 25.516809 304.53134 26.350446 C 305.303436 27.183566 305.894015 28.177517 306.302042 29.331783 C 306.709551 30.486049 306.913823 31.757707 306.913823 33.146757 Z M 306.913823 33.146757 " stroke="#000000" stroke-width="2.133332" stroke-opacity="1" stroke-miterlimit="4"/></svg>